<svg width="44" height="44" viewBox="0 0 44 44" fill="none" xmlns="http://www.w3.org/2000/svg">
<path d="M30.7316 18.6848V9.03856C30.7316 6.9066 29.8013 4.86196 28.1453 3.35444C26.4893 1.84692 24.2432 1 21.9013 1C19.5593 1 17.3133 1.84692 15.6573 3.35444C14.0013 4.86196 13.071 6.9066 13.071 9.03856V18.6848M39.8116 14.4126L42.7856 40.136C42.9504 41.5615 41.726 42.8005 40.1506 42.8005H3.65194C3.28038 42.8009 2.91289 42.7301 2.57334 42.5927C2.23379 42.4553 1.92978 42.2545 1.68106 42.0032C1.43234 41.7519 1.24447 41.4558 1.12965 41.1341C1.01483 40.8124 0.97564 40.4724 1.01461 40.136L3.99102 14.4126C4.05968 13.82 4.3669 13.2716 4.85345 12.873C5.34001 12.4744 5.97143 12.2539 6.62599 12.254H37.1766C38.5329 12.254 39.6703 13.1865 39.8116 14.4126ZM13.954 18.6848C13.954 18.898 13.861 19.1025 13.6954 19.2532C13.5298 19.404 13.3052 19.4887 13.071 19.4887C12.8368 19.4887 12.6122 19.404 12.4466 19.2532C12.281 19.1025 12.1879 18.898 12.1879 18.6848C12.1879 18.4716 12.281 18.2672 12.4466 18.1164C12.6122 17.9657 12.8368 17.881 13.071 17.881C13.3052 17.881 13.5298 17.9657 13.6954 18.1164C13.861 18.2672 13.954 18.4716 13.954 18.6848ZM31.6146 18.6848C31.6146 18.898 31.5216 19.1025 31.356 19.2532C31.1904 19.404 30.9658 19.4887 30.7316 19.4887C30.4974 19.4887 30.2728 19.404 30.1072 19.2532C29.9416 19.1025 29.8486 18.898 29.8486 18.6848C29.8486 18.4716 29.9416 18.2672 30.1072 18.1164C30.2728 17.9657 30.4974 17.881 30.7316 17.881C30.9658 17.881 31.1904 17.9657 31.356 18.1164C31.5216 18.2672 31.6146 18.4716 31.6146 18.6848Z" stroke="white" stroke-width="1.5" stroke-linecap="round" stroke-linejoin="round"/>
</svg>
