<svg width="41" height="41" viewBox="0 0 41 41" fill="none" xmlns="http://www.w3.org/2000/svg">
<path d="M21.7812 12.8125C21.7812 13.1523 21.6463 13.4782 21.406 13.7185C21.1657 13.9588 20.8398 14.0938 20.5 14.0938C20.1602 14.0938 19.8343 13.9588 19.594 13.7185C19.3537 13.4782 19.2188 13.1523 19.2188 12.8125C19.2188 12.4727 19.3537 12.1468 19.594 11.9065C19.8343 11.6662 20.1602 11.5312 20.5 11.5312C20.8398 11.5312 21.1657 11.6662 21.406 11.9065C21.6463 12.1468 21.7812 12.4727 21.7812 12.8125ZM20.5 17.9375C20.7549 17.9375 20.9993 18.0387 21.1795 18.219C21.3597 18.3992 21.4609 18.6436 21.4609 18.8984V28.5078C21.4609 28.7627 21.3597 29.0071 21.1795 29.1873C20.9993 29.3675 20.7549 29.4688 20.5 29.4688C20.2451 29.4688 20.0007 29.3675 19.8205 29.1873C19.6403 29.0071 19.5391 28.7627 19.5391 28.5078V18.8984C19.5391 18.6436 19.6403 18.3992 19.8205 18.219C20.0007 18.0387 20.2451 17.9375 20.5 17.9375Z" fill="white"/>
<path fill-rule="evenodd" clip-rule="evenodd" d="M41 20.5C41 31.8263 31.8263 41 20.5 41C9.17375 41 0 31.8263 0 20.5C0 9.17375 9.17375 0 20.5 0C31.8263 0 41 9.17375 41 20.5ZM39.7188 20.5C39.7188 31.1087 31.1087 39.7188 20.5 39.7188C9.89125 39.7188 1.28125 31.1087 1.28125 20.5C1.28125 9.89125 9.89125 1.28125 20.5 1.28125C31.1087 1.28125 39.7188 9.89125 39.7188 20.5Z" fill="white"/>
</svg>
