<svg width="44" height="44" viewBox="0 0 44 44" fill="none" xmlns="http://www.w3.org/2000/svg">
<path d="M34.397 13.6237L35.4156 12.6539C36.2267 11.8831 37.3268 11.45 38.474 11.4498C39.6212 11.4496 40.7215 11.8824 41.5329 12.6529C42.3442 13.4234 42.8002 14.4685 42.8004 15.5583C42.8006 16.6481 42.3451 17.6934 41.534 18.4642L40.5154 19.434M34.397 13.6237C34.397 13.6237 34.5246 15.6803 36.4364 17.4965C38.3483 19.3127 40.5154 19.434 40.5154 19.434M34.397 13.6237L25.0247 22.5272C24.3866 23.1291 24.0698 23.4322 23.797 23.7645C23.4743 24.1574 23.2001 24.5796 22.9742 25.031C22.7828 25.4114 22.642 25.8148 22.3582 26.6236L21.4495 29.2153L21.1547 30.0534M40.5154 19.434L31.1431 28.3375C30.505 28.9436 30.1882 29.2445 29.8384 29.5037C29.4248 29.8102 28.9804 30.0708 28.5052 30.2854C28.1048 30.4672 27.6801 30.601 26.8287 30.8706L24.1006 31.7338L23.2184 32.0138M21.1547 30.0534L20.8621 30.8936C20.794 31.0886 20.7843 31.2978 20.8341 31.4977C20.8839 31.6977 20.9913 31.8806 21.1443 32.0259C21.2972 32.1712 21.4897 32.2732 21.7002 32.3205C21.9107 32.3679 22.1309 32.3586 22.3362 32.2939L23.2184 32.0138M21.1547 30.0534L23.2184 32.0138" stroke="white" stroke-width="1.5"/>
<path d="M12.0004 23.9903H17.5005M12.0004 15.6302H26.3008M12.0004 32.3504H15.3005M1 26.0803V17.7202C1 9.83872 1 5.89693 3.57848 3.44951C6.15697 1.00209 10.3041 1 18.6006 1H23.0007C31.2972 1 35.4465 1 38.0228 3.44951M40.6013 26.0803C40.6013 33.9618 40.6013 37.9036 38.0228 40.351M38.0228 40.351C35.4465 42.8005 31.2972 42.8005 23.0007 42.8005H18.6006C10.3041 42.8005 6.15477 42.8005 3.57848 40.351M38.0228 40.351C40.0997 38.3801 40.5023 35.4436 40.5815 30.2603" stroke="white" stroke-width="1.5" stroke-linecap="round"/>
</svg>
