<svg width="24" height="25" viewBox="0 0 24 25" fill="none" xmlns="http://www.w3.org/2000/svg">
<path d="M12.0001 2.23401C10.6869 2.23401 9.38653 2.49267 8.17328 2.99521C6.96002 3.49776 5.85763 4.23436 4.92904 5.16294C3.05368 7.0383 2.00011 9.58184 2.00011 12.234C1.99221 14.543 2.79165 16.7821 4.26011 18.564L2.26011 20.564C2.12135 20.7046 2.02736 20.8832 1.98998 21.0772C1.95261 21.2712 1.97353 21.4719 2.05011 21.654C2.13317 21.8339 2.26781 21.9851 2.43696 22.0884C2.6061 22.1917 2.80211 22.2423 3.00011 22.234H12.0001C14.6523 22.234 17.1958 21.1804 19.0712 19.3051C20.9465 17.4297 22.0001 14.8862 22.0001 12.234C22.0001 9.58184 20.9465 7.0383 19.0712 5.16294C17.1958 3.28758 14.6523 2.23401 12.0001 2.23401ZM12.0001 20.234H5.41011L6.34011 19.304C6.52636 19.1166 6.6309 18.8632 6.6309 18.599C6.6309 18.3348 6.52636 18.0814 6.34011 17.894C5.0307 16.586 4.21528 14.8645 4.0328 13.0228C3.85032 11.1811 4.31205 9.33301 5.33934 7.79353C6.36662 6.25405 7.8959 5.11837 9.66663 4.57998C11.4374 4.0416 13.34 4.13381 15.0503 4.84092C16.7607 5.54803 18.173 6.82628 19.0465 8.4579C19.9201 10.0895 20.201 11.9736 19.8412 13.789C19.4815 15.6045 18.5034 17.2391 17.0736 18.4142C15.6439 19.5894 13.8509 20.2326 12.0001 20.234Z" fill="black"/>
</svg>
