<svg width="35" height="35" viewBox="0 0 35 35" fill="none" xmlns="http://www.w3.org/2000/svg">
<path d="M2.1437 31.3104C1.93871 31.5158 1.8237 31.7942 1.82398 32.0844C1.82425 32.3746 1.93978 32.6527 2.14516 32.8577C2.35054 33.0627 2.62893 33.1777 2.91911 33.1775C3.20928 33.1772 3.48746 33.0616 3.69245 32.8563L2.1437 31.3104ZM10.4781 26.0634C10.6772 25.857 10.7873 25.5806 10.7847 25.2939C10.7821 25.0071 10.6669 24.7328 10.464 24.5301C10.2611 24.3274 9.98677 24.2125 9.69999 24.2102C9.41321 24.2078 9.13697 24.3182 8.93078 24.5175L10.4781 26.0634ZM22.5443 7.99169L27.0389 12.4921L28.5862 10.9463L24.0916 6.44585L22.5443 7.99169ZM13.5172 27.5625L7.51328 21.5527L5.96745 23.1L11.97 29.1069L13.5172 27.5625ZM25.2335 20.844L22.4379 21.894L23.2079 23.9415L26.0035 22.8929L25.2335 20.844ZM13.1775 12.6L14.191 9.83648L12.1362 9.08252L11.1241 11.8475L13.1775 12.6ZM8.81412 16.6192C9.85245 16.3334 10.6414 16.1321 11.2875 15.6684L10.0085 13.8921C9.75766 14.0744 9.42953 14.1809 8.2337 14.5104L8.81412 16.6192ZM11.1241 11.8475C10.6968 13.0142 10.5627 13.3321 10.3614 13.5684L12.0268 14.9873C12.5416 14.3821 12.8056 13.6106 13.1775 12.6L11.1241 11.8475ZM11.2875 15.6684C11.5606 15.471 11.8071 15.244 12.0268 14.9873L10.3614 13.5684C10.2569 13.6897 10.1384 13.7984 10.0085 13.8921L11.2875 15.6684ZM22.4379 21.894C21.4331 22.2731 20.6675 22.5415 20.0666 23.0606L21.4987 24.7173C21.732 24.5131 22.0485 24.3761 23.2079 23.9415L22.4379 21.894ZM20.5683 26.8334C20.8964 25.639 21.0029 25.3123 21.1837 25.06L19.406 23.7854C18.9437 24.4315 18.7439 25.219 18.4581 26.2544L20.5683 26.8334ZM20.0666 23.0621C19.8177 23.276 19.5975 23.5181 19.406 23.7854L21.1852 25.06C21.2756 24.9317 21.3801 24.8184 21.4987 24.7173L20.0666 23.0621ZM7.51328 21.5513C6.5712 20.6077 5.93245 19.9661 5.51828 19.4454C5.1012 18.9219 5.05891 18.6959 5.05745 18.5952L2.86995 18.6084C2.87578 19.4571 3.29724 20.1688 3.8062 20.8075C4.31662 21.4492 5.06183 22.1929 5.96599 23.0971L7.51328 21.5513ZM8.2337 14.5104C6.99995 14.8517 5.98495 15.1288 5.22516 15.435C4.46683 15.7384 3.74787 16.1496 3.32495 16.8846L5.22224 17.9754C5.27183 17.8879 5.42058 17.7129 6.03891 17.465C6.65724 17.2171 7.52933 16.9736 8.81412 16.6192L8.2337 14.5104ZM5.05745 18.5938C5.05618 18.3768 5.11255 18.1634 5.22078 17.9754L3.32495 16.8846C3.02322 17.4087 2.8662 18.0036 2.86995 18.6084L5.05745 18.5938ZM11.97 29.1069C12.88 30.0169 13.6281 30.7694 14.2712 31.2813C14.9143 31.7946 15.6304 32.2175 16.485 32.219L16.4879 30.0315C16.3858 30.0315 16.1597 29.9892 15.6347 29.5706C15.1097 29.1536 14.4652 28.5119 13.5172 27.5625L11.97 29.1069ZM18.4595 26.2529C18.1022 27.5479 17.8587 28.4259 17.6093 29.0486C17.3585 29.6727 17.182 29.8215 17.0945 29.8711L18.1781 31.7713C18.9204 31.3484 19.3331 30.625 19.6393 29.8623C19.9456 29.0981 20.2256 28.0759 20.5683 26.8334L18.4595 26.2529ZM16.485 32.219C17.0785 32.219 17.6618 32.0659 18.1781 31.7713L17.0945 29.8711C16.9097 29.9763 16.7006 30.0316 16.4879 30.0315L16.485 32.219ZM27.0389 12.4921C28.5906 14.0438 29.6639 15.1215 30.3202 16.0111C30.9677 16.8831 31.042 17.3484 30.9633 17.7129L33.1012 18.1752C33.3783 16.8948 32.8679 15.7734 32.0789 14.7088C31.3002 13.6588 30.0868 12.4469 28.5862 10.9463L27.0389 12.4921ZM26.0035 22.89C27.9883 22.1448 29.5954 21.544 30.7372 20.9096C31.8966 20.2679 32.8241 19.4571 33.1012 18.1752L30.9633 17.7129C30.8845 18.0775 30.625 18.4713 29.6756 18.9963C28.7087 19.5344 27.2868 20.0711 25.2335 20.8425L26.0035 22.89ZM24.0916 6.44585C22.5808 4.93356 21.3616 3.71002 20.3072 2.92544C19.2368 2.1321 18.1081 1.61731 16.8218 1.90169L17.2943 4.03669C17.6589 3.95648 18.1241 4.02939 19.002 4.68273C19.896 5.34627 20.9825 6.42689 22.5443 7.99169L24.0916 6.44585ZM14.1895 9.83502C14.9508 7.75981 15.4816 6.32044 16.0139 5.34335C16.5389 4.38085 16.9297 4.11835 17.2943 4.03669L16.8233 1.90169C15.537 2.1846 14.7306 3.12669 14.0933 4.29627C13.4647 5.45127 12.8727 7.07585 12.1362 9.08252L14.1895 9.83502ZM3.68953 32.8563L10.4781 26.0634L8.93078 24.5175L2.14224 31.3104L3.68953 32.8563Z" fill="black"/>
</svg>
