<svg width="25" height="26" viewBox="0 0 25 26" fill="none" xmlns="http://www.w3.org/2000/svg">
<path d="M22.6114 11.9976L14.278 3.66424C14.1324 3.5186 13.9468 3.41943 13.7447 3.37926C13.5427 3.33908 13.3333 3.35971 13.143 3.43853C12.9527 3.51736 12.79 3.65083 12.6755 3.8221C12.5611 3.99336 12.5 4.19471 12.4999 4.4007V8.09341C9.65439 8.35673 7.00953 9.67243 5.08293 11.783C3.15633 13.8936 2.08666 16.6472 2.08325 19.5049V21.0674C2.08342 21.2836 2.15087 21.4944 2.27625 21.6706C2.40163 21.8467 2.57872 21.9795 2.78297 22.0505C2.98721 22.1215 3.20849 22.1272 3.41609 22.0667C3.6237 22.0063 3.80736 21.8827 3.94159 21.7132C4.96226 20.4998 6.21444 19.5019 7.62502 18.7777C9.0356 18.0535 10.5763 17.6177 12.1572 17.4955C12.2093 17.4892 12.3395 17.4788 12.4999 17.4684V21.0674C12.5 21.2734 12.5611 21.4747 12.6755 21.646C12.79 21.8172 12.9527 21.9507 13.143 22.0295C13.3333 22.1084 13.5427 22.129 13.7447 22.0888C13.9468 22.0486 14.1324 21.9495 14.278 21.8038L22.6114 13.4705C22.8067 13.2751 22.9164 13.0102 22.9164 12.734C22.9164 12.4578 22.8067 12.1929 22.6114 11.9976ZM14.5833 18.5528V16.3799C14.5833 16.1036 14.4735 15.8386 14.2782 15.6433C14.0828 15.4479 13.8179 15.3382 13.5416 15.3382C13.276 15.3382 12.1916 15.3903 11.9145 15.4267C9.107 15.6851 6.43458 16.7518 4.22075 18.4976C4.47205 16.2001 5.56194 14.0761 7.28175 12.5321C9.00155 10.9882 11.2304 10.1328 13.5416 10.1299C13.8179 10.1299 14.0828 10.0201 14.2782 9.82477C14.4735 9.62942 14.5833 9.36447 14.5833 9.0882V6.91528L20.402 12.734L14.5833 18.5528Z" fill="black"/>
</svg>
